<?xml version="1.0" encoding="UTF-8"?>
<svg xmlns="http://www.w3.org/2000/svg" version="1.1" viewBox="0 0 432 432">
  <!-- Generator: Adobe Illustrator 29.3.1, SVG Export Plug-In . SVG Version: 2.1.0 Build 151)  -->
  <path d="M235.11,68.73c-2.75-1.58-5.53-3.12-8.36-4.55-14.27-7.23-29.39-9.31-45.06-6.73-17.38,2.86-32.68,10.04-45.5,22.45-18.04,17.48-24.73,38.41-19.52,62.9,3.92,18.43,14.12,33.13,28.34,45.22,1.01.86,2.06,2.1,2.96,3.07,9.74,10.43,18.74,21.03,26.08,33.3,7.73,12.93,13.87,26.41,15.15,41.74.55,6.55-.64,12.56-4.36,17.78-5.42,7.62-12.51,13.48-20.91,17.66-.81.41-1.72.65-2.61.87-5.84,1.47-11.74,1.82-17.64.6-14.09-2.91-23.81-10.91-28.12-24.85-2.34-7.58-.5-14.6,3.8-21.02,4.76-7.11,11.39-11.99,19.27-15.14,11.13-4.44,22.36-5.6,33.7-.63,1.25.55,2.56.77,3.72.25.02-.03.05-.05.07-.07.15-.21.28-.44.4-.67.03-.09.05-.18.08-.28-.35-2.15-.88-4.27-1.76-6.34-1.67-3.92-4.05-7.53-6.93-10.66-3.15-3.43-6.76-6.22-10.7-8.68-1.35-.84-2.85-1.64-4.31-2.5-.75-.34-1.49-.68-2.25-1-3.99-1.08-8.1-1.62-12.29-1.65-4.48-.03-8.99.43-13.44,1.04-13.43,1.85-25.33,7.1-35.08,16.71-10.08,9.93-15.79,22.05-17.45,36.04-1.57,13.22.73,25.72,7.82,37.12,5.94,9.55,14.41,16.43,24.13,21.8,14.93,8.25,31.07,11.78,48.03,11.87,11.85-.02,23.36-1.74,34.05-5.61,21.22-7.68,37.98-20.66,48.2-41.24,5.19-10.45,8.37-21.49,9.96-33.05,1.53-11.2-.41-21.85-4.8-32.07-4.01-9.34-9.28-18.03-15.52-26.05-3.96-5.08-8.28-9.88-12.47-14.78-8.45-9.89-17.14-19.58-25.3-29.69-5.52-6.84-10.5-14.14-15.34-21.48-3.37-5.1-5.29-10.91-4.86-17.15,1-14.41,8.09-24.87,21.07-31.17,5.87-2.85,12.12-3.64,18.53-1.91,9.55,2.57,16.29,11.36,16.69,21.91.41,10.8-3.71,19.74-11.52,27.06-3.07,2.88-3.39,4.46-.49,7.62,1.83,1.99,4.08,3.81,6.48,5.02,7.24,3.64,14.88,4.25,22.67,1.93,3.71-1.11,7.17-2.89,9.09-6.38,2.46-4.47,4.94-9.01,6.65-13.79,7.81-21.81-.25-43.29-20.33-54.82Z"/>
  <path d="M248.85,255.22c.88.9,1.75,1.8,2.62,2.71,12.35,12.87,26.52,23.05,43.41,29.12,11.87,4.27,24.06,6,36.63,3.9,7.67-1.28,14.69-4.12,20.98-8.75,1.03-.76,2.15-1.46,3.32-1.98,2.13-.93,3.68-.03,4.15,2.28.12.58.13,1.19.13,1.78.06,11.63-3.53,21.93-11.69,30.32-15.34,15.76-34.13,21.19-55.55,17.54-24.14-4.12-42.69-17.39-57.73-36.18-1.21-1.51-.79-2.57.12-3.96,5.4-8.22,9.22-17.12,11.1-26.8.45-2.34.63-4.72.98-7.08.14-.91.41-1.81.62-2.71l.92-.21Z"/>
</svg>